HIERARCHY
ROOT Hips
{
	OFFSET	0.00	0.00	0.00
	CHANNELS 6 Xposition Yposition Zposition Zrotation Xrotation Yrotation
	JOINT LeftUpLeg
	{
		OFFSET	 0.126116	-0.014019	-0.065224
		CHANNELS 3 Zrotation Xrotation Yrotation
		JOINT LeftLeg
		{
			OFFSET	 0.000000	 0.000000	 0.569914
			CHANNELS 3 Zrotation Xrotation Yrotation
			JOINT LeftFoot
			{
				OFFSET	 0.000000	 0.000000	 0.544423
				CHANNELS 3 Zrotation Xrotation Yrotation
				JOINT LeftToeBase
				{
					OFFSET	 0.000000	 0.000000	 0.207117
					CHANNELS 3 Zrotation Xrotation Yrotation
					End Site
					{
						OFFSET	 0.000000	 0.000000	 0.207117
					}
				}
			}
		}
	}
	JOINT RightUpLeg
	{
		OFFSET	-0.124023	-0.008373	-0.065224
		CHANNELS 3 Zrotation Xrotation Yrotation
		JOINT RightLeg
		{
			OFFSET	 0.000000	 0.000000	 0.570047
			CHANNELS 3 Zrotation Xrotation Yrotation
			JOINT RightFoot
			{
				OFFSET	 0.000000	 0.000000	 0.544354
				CHANNELS 3 Zrotation Xrotation Yrotation
				JOINT RightToeBase
				{
					OFFSET	 0.000000	 0.000000	 0.207540
					CHANNELS 3 Zrotation Xrotation Yrotation
					End Site
					{
						OFFSET	 0.000000	 0.000000	 0.207540
					}
				}
			}
		}
	}
	JOINT Spine
	{
		OFFSET	 0.000184	-0.007763	 0.117403
		CHANNELS 3 Zrotation Xrotation Yrotation
		JOINT Spine1
		{
			OFFSET	 0.000000	 0.000000	 0.137269
			CHANNELS 3 Zrotation Xrotation Yrotation
			JOINT Spine2
			{
				OFFSET	 0.000000	 0.000000	 0.156879
				CHANNELS 3 Zrotation Xrotation Yrotation
				JOINT LeftShoulder
				{
					OFFSET	 0.080501	-0.002496	 0.160144
					CHANNELS 3 Zrotation Xrotation Yrotation
					JOINT LeftArm
					{
						OFFSET	 0.000000	 0.000000	 0.164363
						CHANNELS 3 Zrotation Xrotation Yrotation
						JOINT LeftForeArm
						{
							OFFSET	 0.000000	 0.000000	 0.364576
							CHANNELS 3 Zrotation Xrotation Yrotation
							JOINT LeftHand
							{
								OFFSET	 0.000000	 0.000000	 0.360812
								CHANNELS 3 Zrotation Xrotation Yrotation
								JOINT LeftHandIndex1
								{
									OFFSET	 0.000000	 0.000000	 0.086006
									CHANNELS 3 Zrotation Xrotation Yrotation
									JOINT LeftHandIndex2
									{
										OFFSET	 0.000000	 0.000000	 0.047236
										CHANNELS 3 Zrotation Xrotation Yrotation
										JOINT LeftHandIndex3
										{
											OFFSET	-0.004284	-0.000551	 0.038166
											CHANNELS 3 Zrotation Xrotation Yrotation
											End Site
											{
												OFFSET	-0.004284	-0.000551	 0.038166
											}
										}
									}
								}
							}
						}
					}
				}
				JOINT Neck
				{
					OFFSET	 0.000000	 0.000000	 0.176489
					CHANNELS 3 Zrotation Xrotation Yrotation
					JOINT Head
					{
						OFFSET	 0.000000	-0.001747	 0.077940
						CHANNELS 3 Zrotation Xrotation Yrotation
						End Site
						{
							OFFSET	 0.000000	-0.001747	 0.077940
						}
					}
				}
				JOINT RightShoulder
				{
					OFFSET	-0.080363	 0.000306	 0.159706
					CHANNELS 3 Zrotation Xrotation Yrotation
					JOINT RightArm
					{
						OFFSET	 0.000000	 0.000000	 0.164196
						CHANNELS 3 Zrotation Xrotation Yrotation
						JOINT RightForeArm
						{
							OFFSET	 0.000000	 0.000000	 0.365611
							CHANNELS 3 Zrotation Xrotation Yrotation
							JOINT RightHand
							{
								OFFSET	 0.000000	 0.000000	 0.360648
								CHANNELS 3 Zrotation Xrotation Yrotation
								JOINT RightHandIndex1
								{
									OFFSET	 0.000000	 0.000000	 0.069977
									CHANNELS 3 Zrotation Xrotation Yrotation
									JOINT RightHandIndex2
									{
										OFFSET	 0.000000	 0.000000	 0.052305
										CHANNELS 3 Zrotation Xrotation Yrotation
										JOINT RightHandIndex3
										{
											OFFSET	 0.009002	-0.000782	 0.042196
											CHANNELS 3 Zrotation Xrotation Yrotation
											End Site
											{
												OFFSET	 0.009002	-0.000782	 0.042196
											}
										}
									}
								}
							}
						}
					}
				}
			}
		}
	}
}
MOTION
Frames:    9
Frame Time: 0.03333334
 7.134055	 5.479018	-0.027223	-104.722900	 4.087830	-1.034286	 9.483068	 18.096190	-176.288100	-5.776442	-11.624730	 1.534296	-11.134230	 89.035100	 14.578290	-2.278696	 41.614150	-0.319780	 4.457261	-45.733950	-179.819100	-0.273093	-42.426350	 3.585912	-176.423900	 84.378370	-178.893400	 2.391829	 26.599170	-0.038263	-9.432094	 3.111761	 2.862026	-14.852050	-2.905814	 0.200143	-17.333690	-5.774708	-2.735567	-91.776180	 78.527400	 180.000000	 42.390870	 62.225910	-57.691180	-6.461796	-4.573284	-26.804450	 4.255307	-10.106520	-5.449562	-3.812334	 37.924440	-2.927599	-2.450526	 36.184240	 0.754587	-1.378229	 35.397820	-2.634230	-0.257592	 5.000812	-2.308580	-4.589777	-23.413600	-4.728348	 89.782090	 78.203890	-180.000000	-30.448870	 73.152370	 34.007600	 3.901239	-6.480224	 19.754330	-13.004600	-11.195580	 9.715763	 6.437017	 35.671460	-0.771858	 2.830251	 35.756010	-7.813440	-2.350882	 35.473990	 5.254307
 7.101916	 5.487586	-0.027029	-104.077800	 4.227182	-1.253315	 9.067492	 19.411460	-176.468800	-5.313699	-11.623980	 1.540110	-2.893863	 88.533000	 6.370269	-2.252027	 43.584890	-0.376286	 4.866984	-45.388580	-179.163500	 0.215934	-42.087100	 4.055902	-175.533800	 85.631390	-179.272300	 2.376851	 30.011340	 0.035502	-9.683853	 2.981466	 2.737872	-15.016520	-2.958729	 0.050764	-17.409600	-5.734889	-2.785777	-91.776180	 78.527400	 180.000000	 43.522280	 62.745980	-58.751930	-6.299702	-4.530974	-25.323370	 4.606618	-10.133180	-5.454631	-3.812334	 37.924440	-2.927599	-2.450526	 36.184240	 0.754587	-1.378229	 35.397820	-2.634230	-0.392869	 5.196496	-2.292400	-4.700158	-23.621730	-4.720157	 89.782120	 78.203870	 180.000000	-29.584590	 73.528500	 32.679960	 3.948642	-6.374575	 19.239610	-13.168500	-11.212410	 9.719491	 6.437017	 35.671460	-0.771858	 2.830251	 35.756010	-7.813440	-2.350882	 35.473990	 5.254307
 7.036706	 5.506557	-0.030161	-103.112100	 4.514609	-1.485360	 8.527484	 21.966760	-177.281400	-4.270176	-11.617650	 1.587802	 3.995692	 86.051960	-0.197121	-2.169766	 48.428560	-0.530063	 5.294826	-44.067930	-178.456800	 2.041312	-43.589210	 5.705661	-174.393700	 88.533400	-179.147900	 2.381022	 29.177140	 0.017147	-10.285500	 2.618539	 2.230363	-15.278370	-3.197271	-0.311271	-17.439530	-5.752072	-2.907477	-91.776180	 78.527400	 180.000000	 45.085790	 64.519490	-59.518230	-6.614694	-4.373474	-22.560430	 5.226420	-10.209520	-5.470647	-3.812334	 37.924440	-2.927599	-2.450526	 36.184240	 0.754587	-1.378229	 35.397820	-2.634230	-0.636395	 4.979365	-2.177401	-4.834558	-23.301610	-4.445109	 89.782120	 78.203870	 180.000000	-27.604820	 74.320330	 29.914200	 4.314081	-6.196631	 18.565510	-13.375390	-11.253110	 9.737929	 6.437017	 35.671460	-0.771858	 2.830251	 35.756010	-7.813440	-2.350882	 35.473990	 5.254307
 6.970083	 5.527028	-0.027835	-102.657100	 4.413370	-1.341728	 8.534486	 24.373690	-178.590100	-3.274356	-11.604230	 1.683834	 5.073187	 80.741460	-0.513274	-2.071797	 52.711360	-0.689375	 4.160450	-42.435630	-179.249400	 6.232818	-45.934220	 8.521221	 5.773648	 87.409880	 2.612275	 2.370270	 31.205440	 0.062165	-10.793840	 2.264521	 1.213848	-15.272390	-3.539121	-0.693275	-17.369540	-6.012403	-2.948580	-91.776180	 78.527400	 180.000000	 45.171470	 67.067070	-57.904080	-7.719102	-4.158163	-20.379870	 5.649920	-10.302760	-5.496253	-3.812334	 37.924440	-2.927599	-2.450526	 36.184240	 0.754587	-1.378229	 35.397820	-2.634230	-0.874191	 4.790358	-1.986870	-4.935020	-22.869790	-4.000582	 89.782090	 78.203830	-180.000000	-25.312540	 74.968670	 26.766620	 4.853369	-6.016106	 18.256110	-13.338080	-11.294680	 9.776440	 6.437017	 35.671460	-0.771858	 2.830251	 35.756010	-7.813440	-2.350882	 35.473990	 5.254307
 6.897859	 5.550715	-0.021510	-102.513500	 4.300201	-1.368127	 8.951649	 26.659340	-179.679200	-3.335361	-11.605980	 1.671404	 4.093702	 71.053640	 1.119421	-2.071533	 52.721300	-0.689782	 3.510833	-40.478890	 179.921800	 6.130647	-48.045140	 8.491114	 5.071903	 85.715810	 2.588360	 2.377578	 29.869630	 0.032367	-10.947130	 1.289289	 0.613442	-14.908010	-3.789417	-0.989222	-17.472960	-6.060432	-2.679152	-91.776180	 78.527400	-180.000000	 43.270410	 70.002060	-53.548790	-9.799454	-3.813255	-19.104750	 5.397631	-10.400130	-5.543413	-3.812334	 37.924440	-2.927599	-2.450526	 36.184240	 0.754587	-1.378229	 35.397820	-2.634230	-0.973471	 4.703767	-1.871444	-4.913396	-22.357110	-3.573370	 89.782100	 78.203850	-180.000000	-24.197090	 75.398580	 25.191440	 5.316411	-5.857781	 18.255940	-13.181580	-11.346710	 9.832436	 6.437017	 35.671460	-0.771858	 2.830251	 35.756010	-7.813440	-2.350882	 35.473990	 5.254307
 6.820442	 5.577881	-0.010891	-102.152700	 3.768989	-1.425173	 8.357391	 27.043310	 178.957300	-4.081367	-15.197310	 1.276727	 2.739294	 58.034130	 1.069197	-2.092364	 51.907950	-0.657429	 2.842765	-36.356500	 179.082000	 5.747147	-49.080850	 8.031532	 5.065373	 86.299950	 1.929856	 2.394227	 25.906100	-0.052863	-11.497550	 1.112773	 0.373719	-14.661840	-3.775144	-1.188428	-17.042160	-5.579279	-2.544760	-91.776180	 78.527400	 180.000000	 39.055920	 71.939630	-45.507560	-11.580790	-3.399629	-19.291510	 4.295256	-10.492850	-5.621476	-3.812334	 37.924440	-2.927599	-2.450526	 36.184240	 0.754587	-1.378229	 35.397820	-2.634230	-0.974452	 4.619826	-1.832469	-4.861757	-20.877470	-3.215665	 89.782120	 78.203870	 180.000000	-24.215050	 75.424190	 24.882970	 5.643682	-5.739107	 18.816520	-12.763250	-11.401870	 9.915559	 6.437017	 35.671460	-0.771858	 2.830251	 35.756010	-7.813440	-2.350882	 35.473990	 5.254307
 6.751114	 5.610060	 0.003997	-100.834900	 2.287579	 0.244610	 7.056207	 13.091330	 173.970300	-1.937443	-44.712350	 0.273155	 1.348786	 52.133660	 0.889946	-2.283520	 41.228360	-0.309064	 1.166124	-29.725630	 176.574700	 6.288155	-48.002290	 7.223813	 6.463185	 89.011070	 0.234663	 2.400555	 23.662600	-0.099331	-12.960220	 2.309619	-1.254347	-14.853540	-3.379297	-1.727721	-16.722280	-5.297198	-2.699909	-91.776180	 78.527400	-180.000000	 36.061520	 71.905750	-39.420860	-11.425080	-3.241775	-20.552720	 3.665495	-10.591730	-5.724400	-3.812334	 37.924440	-2.927599	-2.450526	 36.184240	 0.754587	-1.378229	 35.397820	-2.634230	-1.299089	 4.556636	-1.556879	-5.122748	-19.258110	-3.384723	 89.782090	 78.203890	-180.000000	-26.493910	 74.828740	 27.398810	 6.211108	-5.728812	 20.951600	-11.579750	-11.445280	 10.046230	 6.437017	 35.671460	-0.771858	 2.830251	 35.756010	-7.813440	-2.350882	 35.473990	 5.254307
 6.691836	 5.636147	 0.011649	-99.317120	 1.503072	 2.753911	 6.323899	 4.516518	 169.516800	-0.931411	-59.664550	-0.853269	 0.693918	 51.398790	 1.148722	-2.305635	 39.318050	-0.257500	-0.141086	-23.878680	 173.463500	 6.542933	-45.443260	 5.980619	-174.392000	 89.237150	-179.343800	 2.403294	 22.356230	-0.125913	-14.336080	 3.157313	-3.827397	-15.043190	-3.105203	-2.367198	-17.068470	-5.665286	-2.798427	-91.776180	 78.527400	-180.000000	 34.771450	 71.230670	-36.915500	-10.975410	-3.251230	-22.449840	 3.385822	-10.667850	-5.830225	-3.812334	 37.924440	-2.927599	-2.450526	 36.184240	 0.754587	-1.378229	 35.397820	-2.634230	-1.828804	 4.694279	-1.212889	-5.577826	-18.729580	-3.936840	 89.782110	 78.203870	 180.000000	-29.387800	 73.723560	 31.173660	 6.639690	-5.753829	 23.668020	-10.328970	-11.474990	 10.180210	 6.437017	 35.671460	-0.771858	 2.830251	 35.756010	-7.813440	-2.350882	 35.473990	 5.254307
 6.626385	 5.663299	 0.014976	-97.928880	 0.744972	 3.885125	 3.685232	-4.673310	 168.230300	 3.952157	-70.887250	 1.374879	 1.870714	 59.052060	 0.459722	-2.287665	 40.888580	-0.299711	-0.632345	-18.151550	 172.040100	 6.189512	-42.992110	 4.788716	-174.782000	 87.455320	-179.517400	 2.405392	 21.019440	-0.152794	-15.443890	 3.647887	-4.858720	-15.050140	-2.813778	-2.523537	-17.701100	-5.801007	-2.619665	-91.776180	 78.527400	 180.000000	 32.302650	 70.595890	-33.991280	-12.139690	-2.956806	-25.932970	 2.090598	-10.758010	-5.981755	-3.812334	 37.924440	-2.927599	-2.450526	 36.184240	 0.754587	-1.378229	 35.397820	-2.634230	-2.484016	 4.889866	-0.680940	-6.157106	-18.542040	-4.998440	 89.782120	 78.203870	 180.000000	-32.471560	 71.777460	 35.952110	 7.152433	-5.627989	 27.421650	-8.624612	-11.525440	 10.352500	 6.437017	 35.671460	-0.771858	 2.830251	 35.756010	-7.813440	-2.350882	 35.473990	 5.254307
